<svg xmlns="http://www.w3.org/2000/svg" viewBox="0 0 1200 900" preserveAspectRatio="xMidYMid slice">
  <defs><linearGradient id="sky" x1="0" y1="0" x2="0" y2="1">
    <stop offset="0" stop-color="#f1eadf"/><stop offset="1" stop-color="#faf6f0"/>
  </linearGradient></defs>
  <rect width="1200" height="900" fill="url(#sky)"/><circle cx="1000" cy="180" r="70" fill="#e0a526" opacity="0.9"/><path d="M0 900 L0 415.9142661179698 L75 300.4750600137174 L150 329.00420096021946 L225 318.09694787379976 L300 348.8723422496571 L375 254.85155178326477 L450 296.2919238683128 L525 366.3685013717421 L600 382.1271433470508 L675 307.05520404663923 L750 355.76071673525377 L825 338.76351165980793 L900 376.20498971193416 L975 376.4563871742112 L1050 389.87971536351165 L1125 377.87457133058984 L1200 395.0564986282579 L1275 327.2032493141289 L1350 332.9699074074074 L1200 900 Z" fill="#d8ccb8"/><path d="M0 900 L0 503.00668724279836 L55 473.50043724279834 L110 479.8395061728395 L165 527.8363940329218 L220 538.4125514403293 L275 477.74642489711937 L330 500.8127572016461 L385 463.6749742798354 L440 503.33641975308643 L495 496.7331532921811 L550 500.0576131687243 L605 456.6987397119342 L660 489.4948559670782 L715 414.0161779835391 L770 421.27777777777777 L825 483.796579218107 L880 502.81378600823047 L935 451.81772119341565 L990 465.95473251028807 L1045 426.52404835390945 L1100 433.66358024691357 L1155 477.02667181069955 L1210 506.68106995884773 L1200 900 Z" fill="#b7a283"/><rect x="0" y="720" width="1200" height="180" fill="#b7a283"/><rect x="0" y="720" width="1200" height="10" fill="#7d6a52"/><rect x="380" y="420" width="440" height="300" fill="#d9b48c"/><path d="M350 430 L600 320 L850 430 Z" fill="#b5452a"/><rect x="560" y="560" width="80" height="160" fill="#54473a"/><rect x="430" y="500" width="70" height="60" fill="#54473a"/><rect x="700" y="500" width="70" height="60" fill="#54473a"/><rect x="520" y="700" width="160" height="16" fill="#54473a"/><path d="M49.2 848 L55.6 792 L84.4 792 L90.8 848 Z" fill="#b5452a"/><rect x="57.2" y="844.8" width="9.600000000000001" height="35.2" fill="#54473a"/><rect x="73.2" y="844.8" width="9.600000000000001" height="35.2" fill="#54473a"/><circle cx="70" cy="779.2" r="12.8" fill="#8a5a3c"/><rect x="49.2" y="764.8" width="41.6" height="5.6000000000000005" rx="2.4000000000000004" fill="#54473a"/><rect x="59.6" y="750.4" width="20.8" height="16" rx="4" fill="#54473a"/><path d="M181.2 848 L187.6 792 L216.4 792 L222.8 848 Z" fill="#7d6a52"/><path d="M174.8 880 L184.4 843.2 L219.6 843.2 L229.2 880 Z" fill="#7a2e1d"/><circle cx="202" cy="779.2" r="12.8" fill="#8a5a3c"/><rect x="181.2" y="764.8" width="41.6" height="5.6000000000000005" rx="2.4000000000000004" fill="#54473a"/><rect x="191.6" y="750.4" width="20.8" height="16" rx="4" fill="#54473a"/><path d="M313.2 848 L319.6 792 L348.4 792 L354.8 848 Z" fill="#e0a526"/><rect x="321.2" y="844.8" width="9.600000000000001" height="35.2" fill="#54473a"/><rect x="337.2" y="844.8" width="9.600000000000001" height="35.2" fill="#54473a"/><circle cx="334" cy="779.2" r="12.8" fill="#8a5a3c"/><rect x="313.2" y="764.8" width="41.6" height="5.6000000000000005" rx="2.4000000000000004" fill="#54473a"/><rect x="323.6" y="750.4" width="20.8" height="16" rx="4" fill="#54473a"/><path d="M445.2 848 L451.6 792 L480.4 792 L486.8 848 Z" fill="#7a2e1d"/><path d="M438.8 880 L448.4 843.2 L483.6 843.2 L493.2 880 Z" fill="#b5452a"/><circle cx="466" cy="779.2" r="12.8" fill="#8a5a3c"/><rect x="445.2" y="764.8" width="41.6" height="5.6000000000000005" rx="2.4000000000000004" fill="#54473a"/><rect x="455.6" y="750.4" width="20.8" height="16" rx="4" fill="#54473a"/><path d="M577.2 848 L583.6 792 L612.4 792 L618.8 848 Z" fill="#b7a283"/><rect x="585.2" y="844.8" width="9.600000000000001" height="35.2" fill="#54473a"/><rect x="601.2" y="844.8" width="9.600000000000001" height="35.2" fill="#54473a"/><circle cx="598" cy="779.2" r="12.8" fill="#8a5a3c"/><rect x="577.2" y="764.8" width="41.6" height="5.6000000000000005" rx="2.4000000000000004" fill="#54473a"/><rect x="587.6" y="750.4" width="20.8" height="16" rx="4" fill="#54473a"/><path d="M709.2 848 L715.6 792 L744.4 792 L750.8 848 Z" fill="#b5452a"/><path d="M702.8 880 L712.4 843.2 L747.6 843.2 L757.2 880 Z" fill="#e0a526"/><circle cx="730" cy="779.2" r="12.8" fill="#8a5a3c"/><rect x="709.2" y="764.8" width="41.6" height="5.6000000000000005" rx="2.4000000000000004" fill="#54473a"/><rect x="719.6" y="750.4" width="20.8" height="16" rx="4" fill="#54473a"/><path d="M841.2 848 L847.6 792 L876.4 792 L882.8 848 Z" fill="#7d6a52"/><rect x="849.2" y="844.8" width="9.600000000000001" height="35.2" fill="#54473a"/><rect x="865.2" y="844.8" width="9.600000000000001" height="35.2" fill="#54473a"/><circle cx="862" cy="779.2" r="12.8" fill="#8a5a3c"/><rect x="841.2" y="764.8" width="41.6" height="5.6000000000000005" rx="2.4000000000000004" fill="#54473a"/><rect x="851.6" y="750.4" width="20.8" height="16" rx="4" fill="#54473a"/><path d="M973.2 848 L979.6 792 L1008.4 792 L1014.8 848 Z" fill="#e0a526"/><path d="M966.8 880 L976.4 843.2 L1011.6 843.2 L1021.2 880 Z" fill="#b7a283"/><circle cx="994" cy="779.2" r="12.8" fill="#8a5a3c"/><rect x="973.2" y="764.8" width="41.6" height="5.6000000000000005" rx="2.4000000000000004" fill="#54473a"/><rect x="983.6" y="750.4" width="20.8" height="16" rx="4" fill="#54473a"/><path d="M1105.2 848 L1111.6 792 L1140.4 792 L1146.8 848 Z" fill="#7a2e1d"/><rect x="1113.2" y="844.8" width="9.600000000000001" height="35.2" fill="#54473a"/><rect x="1129.2" y="844.8" width="9.600000000000001" height="35.2" fill="#54473a"/><circle cx="1126" cy="779.2" r="12.8" fill="#8a5a3c"/><rect x="1105.2" y="764.8" width="41.6" height="5.6000000000000005" rx="2.4000000000000004" fill="#54473a"/><rect x="1115.6" y="750.4" width="20.8" height="16" rx="4" fill="#54473a"/><rect x="0" y="860" width="1200" height="40" fill="#7d6a52"/><path d="M30 866 L46 880 L30 894 L14 880 Z" fill="#e0a526"/><rect x="26" y="876" width="8" height="8" fill="#7d6a52"/><path d="M90 866 L106 880 L90 894 L74 880 Z" fill="#e0a526"/><rect x="86" y="876" width="8" height="8" fill="#7d6a52"/><path d="M150 866 L166 880 L150 894 L134 880 Z" fill="#e0a526"/><rect x="146" y="876" width="8" height="8" fill="#7d6a52"/><path d="M210 866 L226 880 L210 894 L194 880 Z" fill="#e0a526"/><rect x="206" y="876" width="8" height="8" fill="#7d6a52"/><path d="M270 866 L286 880 L270 894 L254 880 Z" fill="#e0a526"/><rect x="266" y="876" width="8" height="8" fill="#7d6a52"/><path d="M330 866 L346 880 L330 894 L314 880 Z" fill="#e0a526"/><rect x="326" y="876" width="8" height="8" fill="#7d6a52"/><path d="M390 866 L406 880 L390 894 L374 880 Z" fill="#e0a526"/><rect x="386" y="876" width="8" height="8" fill="#7d6a52"/><path d="M450 866 L466 880 L450 894 L434 880 Z" fill="#e0a526"/><rect x="446" y="876" width="8" height="8" fill="#7d6a52"/><path d="M510 866 L526 880 L510 894 L494 880 Z" fill="#e0a526"/><rect x="506" y="876" width="8" height="8" fill="#7d6a52"/><path d="M570 866 L586 880 L570 894 L554 880 Z" fill="#e0a526"/><rect x="566" y="876" width="8" height="8" fill="#7d6a52"/><path d="M630 866 L646 880 L630 894 L614 880 Z" fill="#e0a526"/><rect x="626" y="876" width="8" height="8" fill="#7d6a52"/><path d="M690 866 L706 880 L690 894 L674 880 Z" fill="#e0a526"/><rect x="686" y="876" width="8" height="8" fill="#7d6a52"/><path d="M750 866 L766 880 L750 894 L734 880 Z" fill="#e0a526"/><rect x="746" y="876" width="8" height="8" fill="#7d6a52"/><path d="M810 866 L826 880 L810 894 L794 880 Z" fill="#e0a526"/><rect x="806" y="876" width="8" height="8" fill="#7d6a52"/><path d="M870 866 L886 880 L870 894 L854 880 Z" fill="#e0a526"/><rect x="866" y="876" width="8" height="8" fill="#7d6a52"/><path d="M930 866 L946 880 L930 894 L914 880 Z" fill="#e0a526"/><rect x="926" y="876" width="8" height="8" fill="#7d6a52"/><path d="M990 866 L1006 880 L990 894 L974 880 Z" fill="#e0a526"/><rect x="986" y="876" width="8" height="8" fill="#7d6a52"/><path d="M1050 866 L1066 880 L1050 894 L1034 880 Z" fill="#e0a526"/><rect x="1046" y="876" width="8" height="8" fill="#7d6a52"/><path d="M1110 866 L1126 880 L1110 894 L1094 880 Z" fill="#e0a526"/><rect x="1106" y="876" width="8" height="8" fill="#7d6a52"/><path d="M1170 866 L1186 880 L1170 894 L1154 880 Z" fill="#e0a526"/><rect x="1166" y="876" width="8" height="8" fill="#7d6a52"/></svg>
